<svg xmlns="http://www.w3.org/2000/svg" width="224" height="144" viewBox="0 0 224 144"><path fill="#A99C37" fill-rule="evenodd" d="M0 54.6858577 0 3C2.41183085e-16 1.34314575 1.34314575 3.04359188e-16 3 0L178.938414 0 178.938414 0C179.013844 3.46413176 180.479499 5.19619764 183.335382 5.19619764 186.191265 5.19619764 189.47565 5.19619764 193.188538 5.19619764 190.670482 3.95562602 190.670482 3.33534021 193.188538 3.33534021 195.706593 3.33534021 197.1233 2.78165688 197.438659 1.67429023 196.740537.558096743 198.62948 0 203.105488 0 209.8195 0 221.924702 5.19619764 221.924702 5.19619764 221.924702 5.19619764 222.479991 5.80083588 223.590567 7.01011236 221.878946 7.84342139 220.277914 8.2600759 218.787473 8.2600759 217.297032 8.2600759 215.926094 7.84342139 214.674658 7.01011236L209.940284 3.33534021C209.063809 3.33534021 208.344622 3.33534021 207.782724 3.33534021 206.939876 3.33534021 205.48035 2.45887696 205.48035 3.33534021 205.48035 3.91964904 204.152079 4.53993485 201.495536 5.19619764 201.295942 4.49218883 200.841434 4.49218883 200.13201 5.19619764 199.422586 5.90020646 198.807535 6.5048447 198.286857 7.01011236L196.681432 8.2600759C196.044686 9.29637001 195.437771 9.81451706 194.860686 9.81451706 193.995059 9.81451706 194.75655 9.81451706 191.642244 9.81451706 188.527938 9.81451706 188.752481 9.81451706 186.700683 9.81451706 184.648886 9.81451706 184.67095 8.96678799 181.804682 8.96678799 179.893837 8.96678799 179.658608 9.41637704 181.098995 10.3155551L172.276272 10.3155551 13.1556719 10.3155551C11.4988177 10.3155551 10.1556719 11.6587009 10.1556719 13.3155551L10.1556719 33.5094833 10.1556719 33.5094833 7.08081091 34.7882204 4.42441109 37.5313829C3.72382213 39.5115198 3.72382213 40.5015882 4.42441109 40.5015882 5.47529454 40.5015882 5.7477458 40.5599707 5.7477458 42.3592842 5.7477458 43.5588266 5.7477458 45.3708437 5.7477458 47.7953356 5.7477458 49.2651669 5.7477458 50.0000826 5.7477458 50.0000826 5.7477458 50.0000826 5.30663423 51.0834007 4.42441109 53.250037L2.59266286 54.6858577 1.1825654 54.6858577 1.1825654 58.9731352 0 54.6858577ZM10.1899088 65.7938387 10.1899088 86.7648114 7.66820792 86.7648114C7.66820792 88.7397636 7.66820792 89.7272397 7.66820792 89.7272397 7.66820792 89.7272397 4.71077846 92.4631514 4.71077846 92.4631514 4.71077846 92.4631514 2.24877859 90.2287459 2.24877859 92.4631514 2.24877859 94.6975569 3.45883861 96.383848 2.24877859 96.383848 1.44207191 96.383848.782093177 97.9231673.268842389 101.001806L.268842389 86.7648114C-.0525333938 84.520152.60744534 83.3978223 2.24877859 83.3978223 3.89011184 83.3978223 4.87048859 83.3978223 5.18990884 83.3978223L7.66820792 76.6302861 7.66820792 74.2029219 6.38775413 70.0640981 5.18990884 61.0018059 10.1899088 65.7938387ZM10.1899088 97.2890982 10.1899088 144.47558 7.55492305 136.544641 7.55492305 129.778613C6.35857955 127.371179 5.7604078 126.167462 5.7604078 126.167462 5.7604078 126.167462 5.7604078 127.455299 5.7604078 125.052445 5.7604078 123.450542 5.27158871 121.508542 4.29395052 119.226445L4.29395052 116.855406.18990884 112.934046C.194556942 111.991608.574889581 111.520389 1.33090676 111.520389 2.46493252 111.520389 4.29395052 109.730722 4.29395052 109.730722 4.29395052 109.730722 4.29395052 108.748755 4.29395052 106.784821L4.29395052 105.744283 5.7604078 104.748577 7.55492305 101.2994 7.55492305 97.2890982 10.1899088 92.0018059 10.1899088 97.2890982Z"/></svg>