<svg height="512" viewBox="0 0 512 512" width="512" xmlns="http://www.w3.org/2000/svg" xmlns:xlink="http://www.w3.org/1999/xlink"><mask id="a" fill="#fff"><path d="m0 .09825h3.188v.8035h-3.188z" fill="#fff" fill-rule="evenodd"/></mask><mask id="b" fill="#fff"><path d="m0 .0531h3.84v.8938h-3.84z" fill="#fff" fill-rule="evenodd"/></mask><mask id="c" fill="#fff"><path d="m.03447212 0h.93105576v1h-.93105576z" fill="#fff" fill-rule="evenodd"/></mask><mask id="d" fill="#fff"><path d="m0 0h114.1v60.0009h-114.1z" fill="#fff" fill-rule="evenodd"/></mask><g fill="none" fill-rule="evenodd" transform="translate(0 1)"><path d="m.03447212 256.09825c0-141.385 114.61499988-256 255.99999988-256s256 114.615 256 256-114.615 256-256 256-255.99999988-114.615-255.99999988-256" fill="#fefefe"/><path d="m498.989172 171.00715c8.355 24.502 12.965 50.649 13.008 77.835 0 .122.016.244.02.368h.004c0-.14-.024-.274-.024-.415-.045-27.182-4.655-53.332-13.008-77.835l-.012.015c.004.01.008.02.012.032" fill="#cc6780"/><path d="m387.732472 35.72535c14.477 8.495 28.026 18.332 40.459 29.35l.022-.026c-12.439-11.027-25.996-20.871-40.483-29.367l-.026.029c.01.006.018.01.028.014" fill="#e3ca7b"/><path d="m181.903372 10.74915c.016-.004.03-.008.043-.012l-.043-.033c-12.992 3.824-25.561 8.607-37.598 14.301l.039.028c12.028-5.687 24.579-10.464 37.559-14.284" fill="#89c4d5"/><path d="m234.728672 1.01785c-.258.02-.522.018-.778.039" stroke-linecap="round" stroke-linejoin="round"/><path d="m0 .48225c1.067-.037 2.119-.13 3.188-.161" mask="url(#a)" stroke-linecap="round" stroke-linejoin="round" transform="translate(245.359972)"/><path d="m278.238172 1.07685c-.224-.02-.455-.016-.679-.035" stroke-linecap="round" stroke-linejoin="round"/><path d="m0 .3504c1.286.043 2.556.146 3.84.193" mask="url(#b)" stroke-linecap="round" stroke-linejoin="round" transform="translate(264.771372 .04515)"/><path d="m210.687872 4.17825c-.482.085-.977.134-1.457.223" stroke-linecap="round" stroke-linejoin="round"/><path d="m223.026272 2.29385c.347-.043.683-.114 1.03-.158" stroke-linecap="round" stroke-linejoin="round"/><path d="m202.350672 5.65315c-.232.047-.455.12-.687.169.029-.006.061-.01.092-.015.201-.044.394-.111.595-.154" fill="#e3996f"/><path d="m186.589872 9.54805c-1.55.417-3.153.705-4.686 1.156l.043.033c1.526-.449 3.105-.768 4.643-1.189" fill="#e3996f"/><path d="m296.001472 3.12875c-2.351-.362-4.765-.528-7.14-.827.417.055.829.13 1.244.189 1.946.256 3.931.382 5.863.677z" fill="#e3996f"/><path d="m55.1478721 94.86555c.012-.018.028-.031.041-.047h-.043c-15.452 18.982-28.113 40.181-37.407 63.043l.016.012c9.29-22.846 21.947-44.038 37.393-63.008" fill="#89c4d5"/><path d="m144.307172 25.04885c.012-.004.026-.008.037-.016l-.039-.027c-34.877 16.501-65.3039999 40.51-89.1589999 69.813h.043c23.846-29.281 54.2589999-53.277 89.1179999-69.77" fill="#e3996f"/><path d="m314.140872 6.85235c-.276-.065-.543-.148-.821-.211" stroke-linecap="round" stroke-linejoin="round"/><path d="m327.629272 10.32185c.303.089.622.148.927.238" stroke-linecap="round" stroke-linejoin="round"/><path d="m359.706172 21.76825c1.073.465 2.186.857 3.251 1.335-1.071-.473-2.174-.878-3.251-1.335" fill="#89c4d5"/><path d="m334.769272 12.45045c.177.057.337.144.512.201.043.014.087.023.13.039-.221-.071-.423-.171-.642-.24" fill="#89c4d5"/><path d="m387.730472 35.68205c-.788-.463-1.66-.792-2.453-1.246.791.452 1.642.813 2.427 1.276z" fill="#89c4d5"/><path d="m428.215372 65.09465c4.401 3.901 8.617 7.993 12.728 12.181l.02-.026c-4.117-4.194-8.341-8.292-12.75-12.2l-.022.025c.008.006.016.014.024.02" fill="#89c4d5"/><path d="m296.003472 3.17205c1.483.228 2.902.636 4.377.89.3.047.601.083.896.136-1.774-.309-3.487-.796-5.275-1.069l-.033.039c.011.004.023.004.035.004" fill="#89c4d5"/><path d="m472.350972 116.33285c11.035 16.948 20.018 35.267 26.626 54.643l.012-.016c-6.612-19.386-15.599-37.714-26.638-54.672l-.018.021c.006.008.012.016.018.024" fill="#89c4d5"/><path d="m440.963372 77.29715c11.728 11.941 22.247 25 31.37 39.012l.018-.022c-9.129-14.022-19.652-27.089-31.388-39.037l-.02.025c.006.006.014.014.02.022" fill="#e3ca7b"/><g fill="#cc6780"><path d="m11.6581721 175.68965c.429-1.455.866-2.891 1.319-4.312-.453 1.429-.89 2.851-1.319 4.312"/><path d="m3.92347212 210.32035c.242-1.51.498-3.023.764-4.531-.268 1.518-.52 3.011-.764 4.531"/><path d="m1.74567212 225.85275c.012-.1.032-.195.043-.293.016-.122.036-.249.05-.371-.026.221-.069.445-.093.664"/><path d="m7.55647212 191.36375c.167-.733.337-1.457.51-2.186-.173.733-.343 1.45-.51 2.186"/><path d="m17.7544721 157.87315-.016-.012c-.128.315-.228.689-.354 1.006.124-.309.23-.655.354-.962.006-.012.012-.022.016-.032"/><path d="m.46567212.51903147c.004-.077 0-.016-.002 0z" mask="url(#c)" transform="translate(0 240.580519)"/><path d="m.84967212 235.45605c-.006.067-.01.13-.014.197.004-.028.006-.055.008-.083.004-.039.004-.077.006-.114"/></g><path d="m507.999772 299.91295c-.004.016-.006.032-.008.045h.782c.002-.015.006-.029.01-.045z" fill="#89c4d5"/><path d="m3.82897212 299.91295h-.79c.002.016.006.03.01.045h.79c-.002-.015-.006-.029-.01-.045" fill="#e3ca7b"/><path d="m482.094172 376.42465c-.445.827-.87 1.666-1.323 2.487.457-.821.878-1.66 1.323-2.487" fill="#e3996f"/><path d="m492.546172 354.55375c-.603 1.439-1.26 2.849-1.886 4.275.63-1.426 1.283-2.836 1.886-4.275" fill="#e3996f"/><path d="m159.510672 199.44105-2.52-105.501 1.819 104.918z" fill="#e3ca7b"/><path d="m159.652472 205.39365c.669-1.384 1.372-2.749 2.103-4.1l-2.245-1.853z" fill="#e3ca7b"/><path d="m249.361172 60.09895-.441.538-33.542-24.971h-.004l-23.767 22.936 46.928 34.216-81.545 1.122 2.521 105.501 2.244 1.853c15.389-28.495 44.012-49.204 77.89-54.286l51.587-56.809z" fill="#e3ca7b"/><path d="m158.809672 198.85815.138 8.042c.232-.504.467-1.008.705-1.507l-.142-5.952z" fill="#89c4d5"/><path d="m249.361172 60.09895-33.983-24.433 33.542 24.971z" fill="#e3ca7b"/><path d="m498.989172 171.00715-69.545 78.248h82.577c0-.015-.004-.031-.004-.045-.004-.124-.02-.246-.02-.368-.043-27.186-4.653-53.333-13.008-77.835" fill="#cc6780"/><path d="m156.990172 93.94015 81.545-1.122-100.586 1.122z" fill="#e3ca7b"/><path d="m93.9078721 145.20785 64.9019999 53.65.701.583-2.521-105.501h-19.041z" fill="#cc6780"/><path d="m387.732472 35.72535-75.346 88.953h63.082l52.747-59.584c-.008-.006-.016-.014-.024-.019-12.433-11.018-25.982-20.855-40.459-29.35" fill="#e3ca7b"/><path d="m238.534972 92.81775-46.928-34.215 23.767-22.936h.004l-33.475-24.918c-12.98 3.821-25.531 8.598-37.558 14.284-.012.008-.026.012-.038.016z" fill="#89c4d5"/><path d="m0 10.6509 33.475 24.917 33.983 24.433 46.642-56.927c-.012 0-.024 0-.035-.004-1.932-.295-3.917-.421-5.862-.677-4.163-.544-8.326-1.099-12.548-1.45-2.957-.244-5.962-.307-8.947-.453-4.218-.204-8.418-.49-12.689-.49-3.552 0-7.046.242-10.562.384-3.557.142-7.117.252-10.632.536-3.932.319-7.821.785-11.702 1.276-4.149.523-8.255 1.169-12.339 1.884-2.985.522-5.982 1.006-8.931 1.629-.032.005-.063.009-.093.015-5.09 1.077-10.1 2.359-15.074 3.726-1.537.421-3.117.74-4.643 1.189-.013.004-.027.008-.043.012" fill="#e3996f" mask="url(#d)" transform="translate(181.903372 .09825)"/><path d="m410.855672 187.49255v-59.124l-63.492 68.198c9.365 15.333 14.796 33.199 14.875 52.276 0 .137.019.271.019.411v.002h13.792l34.806-40.808z" fill="#e3996f"/><path d="m93.9078721 145.20785 44.0409999-51.268-82.8009999.926c-15.446 18.97-28.103 40.162-37.393 63.007-.004.01-.01.02-.016.032l131.8239999 91.351v-.002c0-.14.024-.274.031-.412.059-14.937 3.419-29.123 9.354-41.942l-.138-8.042z" fill="#89c4d5"/><path d="m137.948972 93.94015 100.586-1.122-94.228-67.769c-34.859 16.493-65.2719999 40.489-89.1179999 69.769-.013.016-.029.03-.041.047z" fill="#e3996f"/><path d="m249.361172 60.09895 41.871 30.1-51.587 56.809c5.305-.798 10.74-1.213 16.271-1.213 38.864 0 72.899 20.406 91.448 50.771l63.492-68.198v-14.969l30.107-36.102c-.006-.008-.014-.016-.019-.021-4.112-4.189-8.328-8.281-12.729-12.181l-52.746 59.583h-63.083l75.346-88.953c-.01-.004-.017-.008-.027-.013-.786-.463-1.637-.824-2.428-1.276-7.219-4.132-14.674-7.893-22.32-11.333-1.065-.478-2.178-.87-3.251-1.335-7.898-3.424-16.005-6.435-24.295-9.077-.043-.016-.087-.026-.13-.04-2.536-.807-5.08-1.599-7.652-2.329-4.454-1.268-8.94-2.436-13.488-3.47-4.549-1.033-9.123-1.998-13.76-2.79-1.475-.254-2.895-.662-4.378-.89z" fill="#89c4d5"/><path d="m498.989172 171.00715c-.004-.012-.008-.022-.012-.032-6.608-19.376-15.591-37.694-26.626-54.642l-61.495 71.159v20.956l-34.806 40.807h53.394z" fill="#89c4d5"/><path d="m472.350972 116.33285c-.006-.008-.012-.016-.018-.024-9.123-14.012-19.642-27.071-31.37-39.012l-30.107 36.102v14.969 59.125z" fill="#e3ca7b"/><path d="m.04827212 248.84205 149.51399988.414-131.8239999-91.351c-.124.307-.23.653-.354.962-1.579 3.956-3.032 8.168-4.407 12.51-.453 1.422-.89 2.857-1.319 4.313-1.292 4.387-2.50499998 8.87-3.59199998 13.488-.173.729-.342 1.453-.51 2.186-1.077 4.747-2.014 9.573-2.869 14.425-.266 1.509-.522 3.021-.764 4.531-.803 4.974-1.524 9.944-2.085 14.869-.014.122-.034.248-.049.37-.382 3.377-.678 6.707-.945 10.011-.002.028-.004.055-.008.083-.142 1.764-.248 3.485-.359 5.218-.004.077-.008.152-.012.228-.161 2.604-.334 5.223-.417 7.743" fill="#cc6780"/><path d="m285.598672 254.47765c-1.176-1.189-1.865-1.886-1.865-1.886s.689.697 1.865 1.886" fill="#e3ca7b"/><path d="m215.740572 250.71275-28.808-22.601 19.441 15.252z" fill="#e3ca7b"/><path d="m183.063172 250.71275c0-7.928 1.408-15.513 3.869-22.601 9.365-26.952 34.92-46.33 65.064-46.33 7.337 0 14.398 1.17 21.034 3.297 5.736 1.835 11.121 4.43 16.095 7.62 9.206 5.903 16.891 13.926 22.409 23.391l.004.002c5.932 10.184 9.392 21.987 9.392 34.621 0 11.362-2.8 22.054-7.671 31.502-.024.049-.046.102-.071.149-7.696 14.848-20.621 26.503-36.35 32.589-7.715 2.987-16.072 4.691-24.842 4.691-4.697 0-9.283-.479-13.715-1.375-11.551-2.331-22.033-7.565-30.705-14.886-10.656-8.999-18.491-21.176-22.156-35.066-1.489-5.628-2.357-11.508-2.357-17.604m16.81 62.582c10.781 9.098 23.71 15.355 37.382 18.114 5.49 1.115 11.114 1.684 16.694 1.684 10.291 0 20.463-1.922 30.261-5.715 19.109-7.4 34.822-21.483 44.345-39.862 6.204-12.026 9.347-24.941 9.347-38.363 0-14.732-3.964-29.318-11.443-42.166-6.683-11.458-16.127-21.31-27.291-28.471-6.219-3.992-12.823-7.107-19.613-9.283-8.313-2.664-16.934-4.019-25.606-4.019-35.657 0-67.495 22.677-79.217 56.411-3.131 8.964-4.722 18.234-4.722 27.528 0 7.03.969 14.243 2.879 21.43 4.414 16.761 13.752 31.534 26.984 42.712" fill="#e3ca7b"/><path d="m251.814672 209.38115 21.215-24.303-57.289 65.635z" fill="#e3ca7b"/><path d="m295.330072 264.32715c-1.884-1.906-3.668-3.714-5.232-5.295 1.562 1.581 3.348 3.389 5.232 5.295" fill="#e3ca7b"/><path d="m237.073872 268.53315c-1.229 1.229-17.324 20.351-29.497 34.849 8.672 7.321 19.153 12.555 30.704 14.887 13.227-17.498 37.246-49.736 37.246-49.736s-36.458-1.993-38.453 0" fill="#cc6780"/><path d="m313.187872 282.36415c.026-.047.047-.1.071-.15l-8.999-8.861c3.19 3.226 6.274 6.333 8.928 9.011" fill="#e3ca7b"/><path d="m304.244172 273.33775-31.295 39.276 3.889 2.339c15.729-6.086 28.654-17.742 36.35-32.589-2.655-2.678-5.738-5.785-8.928-9.01-.006-.004-.01-.01-.016-.016" fill="#e3996f"/><path d="m273.029872 185.07835c-6.636-2.127-13.697-3.296-21.034-3.296-30.143 0-55.698 19.378-65.063 46.329l28.808 22.601z" fill="#e3ca7b"/><path d="m285.598672 254.47765c1.109 1.122 2.664 2.698 4.499 4.555 1.564 1.581 3.348 3.388 5.232 5.294 2.834 2.868 5.894 5.959 8.915 9.011l.015.016 8.999 8.861c4.872-9.448 7.672-20.14 7.672-31.502 0-12.634-3.46-24.437-9.393-34.621l-27.804 36.5s.689.697 1.865 1.886" fill="#e3ca7b"/><path d="m304.244172 273.33775c.006.006.01.012.016.016z" fill="#e3ca7b"/><path d="m186.932472 228.11125c-2.461 7.089-3.869 14.674-3.869 22.601 0 6.097.868 11.977 2.357 17.604l20.953-24.952z" fill="#e3996f"/><path d="m289.125372 241.80445v-49.106c-4.974-3.19-10.359-5.785-16.095-7.62l-21.216 24.303z" fill="#e3996f"/><path d="m304.259972 273.35355-.016-.016" stroke-linecap="round" stroke-linejoin="round"/><path d="m304.259972 273.35355-.016-.016" stroke-linecap="round" stroke-linejoin="round"/><path d="m207.576672 303.38245c12.173-14.499 28.269-33.621 29.497-34.849 1.995-1.993 38.453 0 38.453 0s-24.019 32.238-37.246 49.735c4.433.896 9.019 1.375 13.715 1.375 8.771 0 17.128-1.703 24.842-4.691l-3.889-2.339 31.296-39.276c-3.021-3.052-6.081-6.143-8.915-9.01-1.884-1.906-3.67-3.714-5.232-5.295-1.835-1.857-3.39-3.432-4.499-4.555-1.176-1.189-1.865-1.886-1.865-1.886l27.804-36.5-.004-.002c-5.517-9.465-13.203-17.487-22.408-23.391v49.106l-37.311-32.423-36.074 41.331-9.367-7.348-20.953 24.952c3.664 13.89 11.499 26.067 22.156 35.066" fill="#89c4d5"/><path d="m480.676372 299.95815c-2.78 14.357-7.038 28.176-12.398 41.444 10.722-2.737 21.444-5.392 32.156-8.054 3.438-10.869 6.392-21.947 8.349-33.39h-.01-.782z" fill="#89c4d5"/><path d="m425.308972 409.52145c-12.524 13.762-26.874 25.774-42.399 36.173 3.296 9.079 6.211 18.159 8.79 27.236 9.83-6.155 19.337-12.777 28.21-20.163 2.27-14.273 4.025-28.706 5.399-43.246" fill="#c9677f"/><path d="m335.489972 469.97705c-6.593 11.37-12.878 22.917-18.829 34.645 26.922-6.621 52.198-17.378 75.039-31.691-2.579-9.078-5.494-18.157-8.79-27.237-14.695 9.842-30.608 17.974-47.42 24.283" fill="#e3996f"/><path d="m273.852972 483.68795c-6.876 9.574-13.878 19.022-21.081 28.271 1.053.011 2.079.139 3.136.139 20.993 0 41.289-2.689 60.753-7.476 5.951-11.728 12.236-23.275 18.829-34.645-19.423 7.298-40.103 11.98-61.637 13.711" fill="#89c4d5"/><path d="m255.908472 484.52085c-10.198 0-20.174-.884-30.025-2.176-2.806 8.583-4.925 17.48-5.984 26.886 10.783 1.509 21.703 2.594 32.872 2.728 7.203-9.249 14.205-18.697 21.082-28.271-5.924.477-11.888.833-17.945.833" fill="#e3996f"/><path d="m177.874572 470.52645v29.113c13.563 4.299 27.587 7.572 42.025 9.592 1.059-9.407 3.178-18.303 5.984-26.886-16.649-2.184-32.678-6.276-48.009-11.819" fill="#89c4d5"/><path d="m107.983072 430.01785c-.543 10.757-1.882 21.351-4.631 31.61 22.353 16.438 47.434 29.428 74.523 38.012v-29.113c-25.79-9.328-49.354-23.199-69.892-40.509" fill="#e3ca7b"/><path d="m107.983072 430.01785c-14.0989999-11.882-26.6809999-25.459-37.5509999-40.347-4.964 8.56-10.263 16.783-16.16 24.419 14.191 17.903 30.627 33.965 49.0799999 47.538 2.749-10.259 4.088-20.853 4.631-31.61" fill="#e3996f"/><path d="m70.4320721 389.67085c-11.852-16.227-21.306-34.198-28.548-53.253-9.227 1.645-18.463 3.519-27.688 5.575 9.434 26.29 23.029 50.592 40.076 72.097 5.897-7.636 11.196-15.859 16.16-24.419" fill="#c9677f"/><path d="m41.8839721 336.41825c-4.47-11.761-8.29-23.844-10.736-36.46h-27.30899998-.79-.008c2.485 14.497 6.305 28.513 11.15499998 42.035 9.226-2.056 18.461-3.931 27.688-5.575" fill="#e3ca7b"/><path d="m468.278872 341.40205c-10.204 25.266-24.886 48.251-42.97 68.119-1.374 14.54-3.129 28.974-5.399 43.246 24.659-20.522 45.313-45.595 60.861-73.855.453-.822.878-1.66 1.323-2.487 3.076-5.738 5.927-11.604 8.566-17.596.626-1.426 1.284-2.836 1.886-4.275 2.901-6.937 5.604-13.973 7.889-21.206-10.712 2.663-21.434 5.317-32.156 8.054" fill="#e3996f"/></g></svg>