<svg xmlns="http://www.w3.org/2000/svg" width="40" height="30" viewBox="0 0 40 30"><g fill="none" fill-rule="evenodd"><g transform="translate(0 5)"><path fill="#D7C33C" d="M12,10.9999753 L7.68812964,0 C3.01704908,2.52250422 0,6.51053945 0,10.9999753 L12,10.9999753 Z"/><path fill="#A99C37" d="M0,10.9999969 C0.323502102,9.53148654 1.1164056,8.12031461 2.36924674,6.78842964 C3.26956366,5.83120113 4.40331944,4.93369306 5.72524588,4.125 L12,10.9999969 L0,10.9999969 Z"/><polygon fill="#8F853B" points="7.688 0 5.725 4.125 12 11"/></g><g transform="matrix(-1 0 0 1 40 5)"><path fill="#D7C33C" d="M12,10.9999753 L7.68812964,0 C3.01704908,2.52250422 0,6.51053945 0,10.9999753 L12,10.9999753 Z"/><path fill="#A99C37" d="M0,10.9999969 C0.323502102,9.53148654 1.1164056,8.12031461 2.36924674,6.78842964 C3.26956366,5.83120113 4.40331944,4.93369306 5.72524588,4.125 L12,10.9999969 L0,10.9999969 Z"/><polygon fill="#8F853B" points="7.688 0 5.725 4.125 12 11"/></g><g transform="translate(9)"><path fill="#A99C37" d="M21,1.61789936 C17.7383185,0.558727221 14.1310199,0 10.5,0 C6.86898009,0 3.26168151,0.558727221 0,1.61789936 L10.500025,30 C10.504021,29.9985502 14.0040127,20.53785 21,1.61789936 Z"/><polygon fill="#8F853B" points="21 1.618 10.5 30 10.5 16"/><polygon fill="#D7C33C" points="10.547 1.618 .047 30 .047 16" transform="matrix(-1 0 0 1 10.593 0)"/></g></g></svg>